<svg xmlns="http://www.w3.org/2000/svg" viewBox="0 0 1600 1000" width="1600" height="1000" role="img" aria-label="Healthcare Appointment Booking UX — browser mockup"><defs>
  <radialGradient id="g1" cx="22.568%" cy="38.5%" r="70%"><stop offset="0" stop-color="#14B8A6" stop-opacity=".45"/><stop offset="1" stop-color="#14B8A6" stop-opacity="0"/></radialGradient>
  <radialGradient id="g2" cx="77.432%" cy="100%" r="60%"><stop offset="0" stop-color="#ff7a1a" stop-opacity=".18"/><stop offset="1" stop-color="#ff7a1a" stop-opacity="0"/></radialGradient>
  <linearGradient id="acc" x1="0" x2="1" y1="0" y2="1"><stop offset="0" stop-color="#14B8A6"/><stop offset="1" stop-color="#14B8A6" stop-opacity=".55"/></linearGradient>
  <linearGradient id="fade" x1="0" x2="0" y1="0" y2="1"><stop offset="0" stop-color="#14B8A6" stop-opacity=".45"/><stop offset="1" stop-color="#14B8A6" stop-opacity="0"/></linearGradient>
  <pattern id="grid" width="48" height="48" patternUnits="userSpaceOnUse"><path d="M48 0H0V48" fill="none" stroke="#fff" stroke-opacity=".05"/></pattern>
  <filter id="sh" x="-20%" y="-20%" width="140%" height="160%"><feDropShadow dx="0" dy="30" stdDeviation="30" flood-color="#000" flood-opacity=".55"/></filter>
</defs>
<rect width="1600" height="1000" fill="#0a0b0f"/><rect width="1600" height="1000" fill="url(#grid)"/>
<rect width="1600" height="1000" fill="url(#g1)"/><rect width="1600" height="1000" fill="url(#g2)"/><g filter="url(#sh)"><rect x="112.00000000000001" y="80" width="1376" height="840" rx="18" fill="#12141b" stroke="#ffffff1f"/>
  <rect x="112.00000000000001" y="80" width="1376" height="46" rx="18" fill="#1a1d26" /><rect x="112.00000000000001" y="110" width="1376" height="16" rx="0" fill="#1a1d26" />
  <circle cx="138" cy="103" r="6" fill="#ff5f57"/><circle cx="158" cy="103" r="6" fill="#febc2e"/><circle cx="178" cy="103" r="6" fill="#28c840"/>
  <rect x="630" y="92" width="340" height="22" rx="11" fill="#0e1016" /><text x="800" y="108" font-family="Inter, 'Segoe UI', Arial, sans-serif" font-size="12" font-weight="500" fill="#9a9aa5" text-anchor="middle" opacity="1">careslot.com</text>
  <svg x="112.00000000000001" y="126" width="1376" height="794"><rect x="0" y="0" width="1376" height="794" rx="0" fill="#0f1116" /><circle cx="40" cy="36" r="12" fill="#14B8A6"/><text x="62" y="42" font-family="Inter, 'Segoe UI', Arial, sans-serif" font-size="17" font-weight="700" fill="#fff" text-anchor="start" opacity="1">CareSlot</text><text x="956" y="42" font-family="Inter, 'Segoe UI', Arial, sans-serif" font-size="14" font-weight="500" fill="#c9c9d1" text-anchor="start" opacity="1">Projects</text><text x="1048" y="42" font-family="Inter, 'Segoe UI', Arial, sans-serif" font-size="14" font-weight="500" fill="#c9c9d1" text-anchor="start" opacity="1">About</text><text x="1140" y="42" font-family="Inter, 'Segoe UI', Arial, sans-serif" font-size="14" font-weight="500" fill="#c9c9d1" text-anchor="start" opacity="1">Insights</text><text x="1232" y="42" font-family="Inter, 'Segoe UI', Arial, sans-serif" font-size="14" font-weight="500" fill="#c9c9d1" text-anchor="start" opacity="1">Contact</text><rect x="1236" y="20" width="110" height="34" rx="17" fill="#14B8A6" /><text x="1291" y="42" font-family="Inter, 'Segoe UI', Arial, sans-serif" font-size="14" font-weight="700" fill="#0b0b0d" text-anchor="middle" opacity="1">Enquire</text><text x="48" y="140" font-family="Inter, 'Segoe UI', Arial, sans-serif" font-size="54" font-weight="700" fill="#fff" text-anchor="start" opacity="1">Live where</text><text x="48" y="200" font-family="Inter, 'Segoe UI', Arial, sans-serif" font-size="54" font-weight="700" fill="#fff" text-anchor="start" opacity="1">the city</text><text x="278" y="200" font-family="Inter, 'Segoe UI', Arial, sans-serif" font-size="54" font-weight="700" fill="#14B8A6" text-anchor="start" opacity="1">rises.</text><rect x="48" y="230" width="360" height="12" rx="6" fill="#ffffff22" /><rect x="48" y="252" width="300" height="12" rx="6" fill="#ffffff16" /><rect x="48" y="292" width="160" height="46" rx="23" fill="#14B8A6" /><text x="128" y="321" font-family="Inter, 'Segoe UI', Arial, sans-serif" font-size="15" font-weight="700" fill="#0b0b0d" text-anchor="middle" opacity="1">Explore</text><rect x="220" y="292" width="150" height="46" rx="23" fill="none" stroke="#ffffff40"/><text x="295" y="321" font-family="Inter, 'Segoe UI', Arial, sans-serif" font-size="15" font-weight="600" fill="#fff" text-anchor="middle" opacity="1">Book a visit</text><defs><linearGradient id="sky" x1="0" y1="0" x2="0" y2="1"><stop offset="0" stop-color="#14B8A6" stop-opacity=".9"/><stop offset="1" stop-color="#1b1e27"/></linearGradient></defs><rect x="715.52" y="80" width="620.48" height="280" rx="20" fill="url(#sky)" /><rect x="735.52" y="179.81" width="46.64" height="180.19" rx="3" fill="#0d0f14" opacity=".92"/><rect x="741.52" y="189.81" width="34.64" height="6" rx="2" fill="#14B8A633" /><rect x="741.52" y="211.81" width="34.64" height="6" rx="2" fill="#14B8A633" /><rect x="741.52" y="233.81" width="34.64" height="6" rx="2" fill="#14B8A633" /><rect x="741.52" y="255.81" width="34.64" height="6" rx="2" fill="#14B8A633" /><rect x="741.52" y="277.81" width="34.64" height="6" rx="2" fill="#14B8A633" /><rect x="741.52" y="299.81" width="34.64" height="6" rx="2" fill="#14B8A6aa" /><rect x="741.52" y="321.81" width="34.64" height="6" rx="2" fill="#14B8A633" /><rect x="741.52" y="343.81" width="34.64" height="6" rx="2" fill="#14B8A633" /><rect x="797.7955555555556" y="161.144" width="29.812" height="198.856" rx="3" fill="#0d0f14" opacity=".92"/><rect x="803.7955555555556" y="171.144" width="17.812" height="6" rx="2" fill="#14B8A6aa" /><rect x="803.7955555555556" y="193.144" width="17.812" height="6" rx="2" fill="#14B8A6aa" /><rect x="803.7955555555556" y="215.144" width="17.812" height="6" rx="2" fill="#14B8A633" /><rect x="803.7955555555556" y="237.144" width="17.812" height="6" rx="2" fill="#14B8A6aa" /><rect x="803.7955555555556" y="259.144" width="17.812" height="6" rx="2" fill="#14B8A633" /><rect x="803.7955555555556" y="281.144" width="17.812" height="6" rx="2" fill="#14B8A633" /><rect x="803.7955555555556" y="303.144" width="17.812" height="6" rx="2" fill="#14B8A633" /><rect x="803.7955555555556" y="325.144" width="17.812" height="6" rx="2" fill="#14B8A6aa" /><rect x="803.7955555555556" y="347.144" width="17.812" height="6" rx="2" fill="#14B8A633" /><rect x="860.0711111111111" y="217.856" width="62.724000000000004" height="142.144" rx="3" fill="#0d0f14" opacity=".92"/><rect x="866.0711111111111" y="227.856" width="50.724000000000004" height="6" rx="2" fill="#14B8A6aa" /><rect x="866.0711111111111" y="249.856" width="50.724000000000004" height="6" rx="2" fill="#14B8A6aa" /><rect x="866.0711111111111" y="271.856" width="50.724000000000004" height="6" rx="2" fill="#14B8A633" /><rect x="866.0711111111111" y="293.856" width="50.724000000000004" height="6" rx="2" fill="#14B8A6aa" /><rect x="866.0711111111111" y="315.856" width="50.724000000000004" height="6" rx="2" fill="#14B8A6aa" /><rect x="866.0711111111111" y="337.856" width="50.724000000000004" height="6" rx="2" fill="#14B8A6aa" /><rect x="922.3466666666667" y="201.519" width="27.608" height="158.481" rx="3" fill="#0d0f14" opacity=".92"/><rect x="928.3466666666667" y="211.519" width="15.608" height="6" rx="2" fill="#14B8A633" /><rect x="928.3466666666667" y="233.519" width="15.608" height="6" rx="2" fill="#14B8A633" /><rect x="928.3466666666667" y="255.519" width="15.608" height="6" rx="2" fill="#14B8A6aa" /><rect x="928.3466666666667" y="277.519" width="15.608" height="6" rx="2" fill="#14B8A6aa" /><rect x="928.3466666666667" y="299.519" width="15.608" height="6" rx="2" fill="#14B8A6aa" /><rect x="928.3466666666667" y="321.519" width="15.608" height="6" rx="2" fill="#14B8A633" /><rect x="928.3466666666667" y="343.519" width="15.608" height="6" rx="2" fill="#14B8A633" /><rect x="984.6222222222223" y="225.132" width="58.160000000000004" height="134.868" rx="3" fill="#0d0f14" opacity=".92"/><rect x="990.6222222222223" y="235.132" width="46.160000000000004" height="6" rx="2" fill="#14B8A633" /><rect x="990.6222222222223" y="257.132" width="46.160000000000004" height="6" rx="2" fill="#14B8A633" /><rect x="990.6222222222223" y="279.132" width="46.160000000000004" height="6" rx="2" fill="#14B8A633" /><rect x="990.6222222222223" y="301.132" width="46.160000000000004" height="6" rx="2" fill="#14B8A633" /><rect x="990.6222222222223" y="323.132" width="46.160000000000004" height="6" rx="2" fill="#14B8A633" /><rect x="990.6222222222223" y="345.132" width="46.160000000000004" height="6" rx="2" fill="#14B8A633" /><rect x="1046.8977777777777" y="272.443" width="26.552" height="87.557" rx="3" fill="#0d0f14" opacity=".92"/><rect x="1052.8977777777777" y="282.443" width="14.552" height="6" rx="2" fill="#14B8A633" /><rect x="1052.8977777777777" y="304.443" width="14.552" height="6" rx="2" fill="#14B8A633" /><rect x="1052.8977777777777" y="326.443" width="14.552" height="6" rx="2" fill="#14B8A6aa" /><rect x="1109.1733333333334" y="188.66699999999997" width="47.272000000000006" height="171.33300000000003" rx="3" fill="#0d0f14" opacity=".92"/><rect x="1115.1733333333334" y="198.66699999999997" width="35.272000000000006" height="6" rx="2" fill="#14B8A6aa" /><rect x="1115.1733333333334" y="220.66699999999997" width="35.272000000000006" height="6" rx="2" fill="#14B8A633" /><rect x="1115.1733333333334" y="242.66699999999997" width="35.272000000000006" height="6" rx="2" fill="#14B8A633" /><rect x="1115.1733333333334" y="264.667" width="35.272000000000006" height="6" rx="2" fill="#14B8A633" /><rect x="1115.1733333333334" y="286.667" width="35.272000000000006" height="6" rx="2" fill="#14B8A633" /><rect x="1115.1733333333334" y="308.667" width="35.272000000000006" height="6" rx="2" fill="#14B8A633" /><rect x="1115.1733333333334" y="330.667" width="35.272000000000006" height="6" rx="2" fill="#14B8A6aa" /><rect x="1171.4488888888889" y="292.826" width="49.656000000000006" height="67.174" rx="3" fill="#0d0f14" opacity=".92"/><rect x="1177.4488888888889" y="302.826" width="37.656000000000006" height="6" rx="2" fill="#14B8A6aa" /><rect x="1177.4488888888889" y="324.826" width="37.656000000000006" height="6" rx="2" fill="#14B8A633" /><rect x="1177.4488888888889" y="346.826" width="37.656000000000006" height="6" rx="2" fill="#14B8A633" /><rect x="1233.7244444444445" y="130.136" width="38.888" height="229.864" rx="3" fill="#0d0f14" opacity=".92"/><rect x="1239.7244444444445" y="140.136" width="26.887999999999998" height="6" rx="2" fill="#14B8A633" /><rect x="1239.7244444444445" y="162.136" width="26.887999999999998" height="6" rx="2" fill="#14B8A633" /><rect x="1239.7244444444445" y="184.136" width="26.887999999999998" height="6" rx="2" fill="#14B8A633" /><rect x="1239.7244444444445" y="206.136" width="26.887999999999998" height="6" rx="2" fill="#14B8A6aa" /><rect x="1239.7244444444445" y="228.136" width="26.887999999999998" height="6" rx="2" fill="#14B8A633" /><rect x="1239.7244444444445" y="250.136" width="26.887999999999998" height="6" rx="2" fill="#14B8A6aa" /><rect x="1239.7244444444445" y="272.13599999999997" width="26.887999999999998" height="6" rx="2" fill="#14B8A633" /><rect x="1239.7244444444445" y="294.13599999999997" width="26.887999999999998" height="6" rx="2" fill="#14B8A633" /><rect x="1239.7244444444445" y="316.13599999999997" width="26.887999999999998" height="6" rx="2" fill="#14B8A633" /><rect x="1239.7244444444445" y="338.13599999999997" width="26.887999999999998" height="6" rx="2" fill="#14B8A633" /><rect x="48" y="400" width="413.3333333333333" height="364" rx="16" fill="#161922" stroke="#ffffff12"/><rect x="64" y="416" width="381.3333333333333" height="165.48" rx="10" fill="#1f2330" /><text x="64" y="611.48" font-family="Inter, 'Segoe UI', Arial, sans-serif" font-size="16" font-weight="600" fill="#fff" text-anchor="start" opacity="1">Tower A — 2 &amp; 3 bed</text><rect x="64" y="625.48" width="247.99999999999997" height="8" rx="4" fill="#ffffff22" /><rect x="481.3333333333333" y="400" width="413.3333333333333" height="364" rx="16" fill="#161922" stroke="#ffffff12"/><rect x="497.3333333333333" y="416" width="381.3333333333333" height="165.48" rx="10" fill="#14B8A655" /><text x="497.3333333333333" y="611.48" font-family="Inter, 'Segoe UI', Arial, sans-serif" font-size="16" font-weight="600" fill="#fff" text-anchor="start" opacity="1">Garden Villas</text><rect x="497.3333333333333" y="625.48" width="247.99999999999997" height="8" rx="4" fill="#ffffff22" /><rect x="914.6666666666666" y="400" width="413.3333333333333" height="364" rx="16" fill="#161922" stroke="#ffffff12"/><rect x="930.6666666666666" y="416" width="381.3333333333333" height="165.48" rx="10" fill="#1f2330" /><text x="930.6666666666666" y="611.48" font-family="Inter, 'Segoe UI', Arial, sans-serif" font-size="16" font-weight="600" fill="#fff" text-anchor="start" opacity="1">Sky Penthouses</text><rect x="930.6666666666666" y="625.48" width="247.99999999999997" height="8" rx="4" fill="#ffffff22" /></svg></g><g opacity=".9"><rect x="1370" y="936" width="200" height="36" rx="18" fill="#00000066" stroke="#ffffff22"/><text x="1470" y="960" font-family="Inter, 'Segoe UI', Arial, sans-serif" font-size="14" font-weight="600" fill="#ffffffcc" text-anchor="middle" opacity="1">Concept mockup</text></g></svg>