<svg xmlns="http://www.w3.org/2000/svg" viewBox="0 0 1600 1000" width="1600" height="1000" role="img" aria-label="E-commerce SEO &amp; AEO Growth Program — browser mockup"><defs>
  <radialGradient id="g1" cx="25.778%" cy="39.78%" r="70%"><stop offset="0" stop-color="#10B981" stop-opacity=".45"/><stop offset="1" stop-color="#10B981" stop-opacity="0"/></radialGradient>
  <radialGradient id="g2" cx="74.22200000000001%" cy="100%" r="60%"><stop offset="0" stop-color="#ff7a1a" stop-opacity=".18"/><stop offset="1" stop-color="#ff7a1a" stop-opacity="0"/></radialGradient>
  <linearGradient id="acc" x1="0" x2="1" y1="0" y2="1"><stop offset="0" stop-color="#10B981"/><stop offset="1" stop-color="#10B981" stop-opacity=".55"/></linearGradient>
  <linearGradient id="fade" x1="0" x2="0" y1="0" y2="1"><stop offset="0" stop-color="#10B981" stop-opacity=".45"/><stop offset="1" stop-color="#10B981" stop-opacity="0"/></linearGradient>
  <pattern id="grid" width="48" height="48" patternUnits="userSpaceOnUse"><path d="M48 0H0V48" fill="none" stroke="#fff" stroke-opacity=".05"/></pattern>
  <filter id="sh" x="-20%" y="-20%" width="140%" height="160%"><feDropShadow dx="0" dy="30" stdDeviation="30" flood-color="#000" flood-opacity=".55"/></filter>
</defs>
<rect width="1600" height="1000" fill="#0a0b0f"/><rect width="1600" height="1000" fill="url(#grid)"/>
<rect width="1600" height="1000" fill="url(#g1)"/><rect width="1600" height="1000" fill="url(#g2)"/><g filter="url(#sh)"><rect x="112.00000000000001" y="80" width="1376" height="840" rx="18" fill="#12141b" stroke="#ffffff1f"/>
  <rect x="112.00000000000001" y="80" width="1376" height="46" rx="18" fill="#1a1d26" /><rect x="112.00000000000001" y="110" width="1376" height="16" rx="0" fill="#1a1d26" />
  <circle cx="138" cy="103" r="6" fill="#ff5f57"/><circle cx="158" cy="103" r="6" fill="#febc2e"/><circle cx="178" cy="103" r="6" fill="#28c840"/>
  <rect x="630" y="92" width="340" height="22" rx="11" fill="#0e1016" /><text x="800" y="108" font-family="Inter, 'Segoe UI', Arial, sans-serif" font-size="12" font-weight="500" fill="#9a9aa5" text-anchor="middle" opacity="1">nestnook.com</text>
  <svg x="112.00000000000001" y="126" width="1376" height="794"><rect x="0" y="0" width="1376" height="794" rx="0" fill="#0f1116" /><circle cx="40" cy="36" r="12" fill="#10B981"/><text x="62" y="42" font-family="Inter, 'Segoe UI', Arial, sans-serif" font-size="17" font-weight="700" fill="#fff" text-anchor="start" opacity="1">Nest &amp; Nook</text><text x="956" y="42" font-family="Inter, 'Segoe UI', Arial, sans-serif" font-size="14" font-weight="500" fill="#c9c9d1" text-anchor="start" opacity="1">Projects</text><text x="1048" y="42" font-family="Inter, 'Segoe UI', Arial, sans-serif" font-size="14" font-weight="500" fill="#c9c9d1" text-anchor="start" opacity="1">About</text><text x="1140" y="42" font-family="Inter, 'Segoe UI', Arial, sans-serif" font-size="14" font-weight="500" fill="#c9c9d1" text-anchor="start" opacity="1">Insights</text><text x="1232" y="42" font-family="Inter, 'Segoe UI', Arial, sans-serif" font-size="14" font-weight="500" fill="#c9c9d1" text-anchor="start" opacity="1">Contact</text><rect x="1236" y="20" width="110" height="34" rx="17" fill="#10B981" /><text x="1291" y="42" font-family="Inter, 'Segoe UI', Arial, sans-serif" font-size="14" font-weight="700" fill="#0b0b0d" text-anchor="middle" opacity="1">Enquire</text><text x="48" y="140" font-family="Inter, 'Segoe UI', Arial, sans-serif" font-size="54" font-weight="700" fill="#fff" text-anchor="start" opacity="1">Live where</text><text x="48" y="200" font-family="Inter, 'Segoe UI', Arial, sans-serif" font-size="54" font-weight="700" fill="#fff" text-anchor="start" opacity="1">the city</text><text x="278" y="200" font-family="Inter, 'Segoe UI', Arial, sans-serif" font-size="54" font-weight="700" fill="#10B981" text-anchor="start" opacity="1">rises.</text><rect x="48" y="230" width="360" height="12" rx="6" fill="#ffffff22" /><rect x="48" y="252" width="300" height="12" rx="6" fill="#ffffff16" /><rect x="48" y="292" width="160" height="46" rx="23" fill="#10B981" /><text x="128" y="321" font-family="Inter, 'Segoe UI', Arial, sans-serif" font-size="15" font-weight="700" fill="#0b0b0d" text-anchor="middle" opacity="1">Explore</text><rect x="220" y="292" width="150" height="46" rx="23" fill="none" stroke="#ffffff40"/><text x="295" y="321" font-family="Inter, 'Segoe UI', Arial, sans-serif" font-size="15" font-weight="600" fill="#fff" text-anchor="middle" opacity="1">Book a visit</text><defs><linearGradient id="sky" x1="0" y1="0" x2="0" y2="1"><stop offset="0" stop-color="#10B981" stop-opacity=".9"/><stop offset="1" stop-color="#1b1e27"/></linearGradient></defs><rect x="715.52" y="80" width="620.48" height="280" rx="20" fill="url(#sky)" /><rect x="735.52" y="226.067" width="40.86" height="133.933" rx="3" fill="#0d0f14" opacity=".92"/><rect x="741.52" y="236.067" width="28.86" height="6" rx="2" fill="#10B981aa" /><rect x="741.52" y="258.067" width="28.86" height="6" rx="2" fill="#10B981aa" /><rect x="741.52" y="280.067" width="28.86" height="6" rx="2" fill="#10B981aa" /><rect x="741.52" y="302.067" width="28.86" height="6" rx="2" fill="#10B981aa" /><rect x="741.52" y="324.067" width="28.86" height="6" rx="2" fill="#10B98133" /><rect x="741.52" y="346.067" width="28.86" height="6" rx="2" fill="#10B98133" /><rect x="797.7955555555556" y="192.50900000000001" width="51.26" height="167.49099999999999" rx="3" fill="#0d0f14" opacity=".92"/><rect x="803.7955555555556" y="202.50900000000001" width="39.26" height="6" rx="2" fill="#10B98133" /><rect x="803.7955555555556" y="224.50900000000001" width="39.26" height="6" rx="2" fill="#10B98133" /><rect x="803.7955555555556" y="246.50900000000001" width="39.26" height="6" rx="2" fill="#10B981aa" /><rect x="803.7955555555556" y="268.509" width="39.26" height="6" rx="2" fill="#10B981aa" /><rect x="803.7955555555556" y="290.509" width="39.26" height="6" rx="2" fill="#10B981aa" /><rect x="803.7955555555556" y="312.509" width="39.26" height="6" rx="2" fill="#10B981aa" /><rect x="803.7955555555556" y="334.509" width="39.26" height="6" rx="2" fill="#10B98133" /><rect x="860.0711111111111" y="220.185" width="39.988" height="139.815" rx="3" fill="#0d0f14" opacity=".92"/><rect x="866.0711111111111" y="230.185" width="27.988" height="6" rx="2" fill="#10B98133" /><rect x="866.0711111111111" y="252.185" width="27.988" height="6" rx="2" fill="#10B981aa" /><rect x="866.0711111111111" y="274.185" width="27.988" height="6" rx="2" fill="#10B98133" /><rect x="866.0711111111111" y="296.185" width="27.988" height="6" rx="2" fill="#10B98133" /><rect x="866.0711111111111" y="318.185" width="27.988" height="6" rx="2" fill="#10B981aa" /><rect x="866.0711111111111" y="340.185" width="27.988" height="6" rx="2" fill="#10B98133" /><rect x="922.3466666666667" y="244.478" width="54.64" height="115.52199999999999" rx="3" fill="#0d0f14" opacity=".92"/><rect x="928.3466666666667" y="254.478" width="42.64" height="6" rx="2" fill="#10B981aa" /><rect x="928.3466666666667" y="276.478" width="42.64" height="6" rx="2" fill="#10B981aa" /><rect x="928.3466666666667" y="298.478" width="42.64" height="6" rx="2" fill="#10B981aa" /><rect x="928.3466666666667" y="320.478" width="42.64" height="6" rx="2" fill="#10B981aa" /><rect x="928.3466666666667" y="342.478" width="42.64" height="6" rx="2" fill="#10B98133" /><rect x="984.6222222222223" y="246.48399999999998" width="27.192" height="113.516" rx="3" fill="#0d0f14" opacity=".92"/><rect x="990.6222222222223" y="256.484" width="15.192" height="6" rx="2" fill="#10B981aa" /><rect x="990.6222222222223" y="278.484" width="15.192" height="6" rx="2" fill="#10B98133" /><rect x="990.6222222222223" y="300.484" width="15.192" height="6" rx="2" fill="#10B98133" /><rect x="990.6222222222223" y="322.484" width="15.192" height="6" rx="2" fill="#10B98133" /><rect x="990.6222222222223" y="344.484" width="15.192" height="6" rx="2" fill="#10B981aa" /><rect x="1046.8977777777777" y="177.566" width="38.924" height="182.434" rx="3" fill="#0d0f14" opacity=".92"/><rect x="1052.8977777777777" y="187.566" width="26.924" height="6" rx="2" fill="#10B98133" /><rect x="1052.8977777777777" y="209.566" width="26.924" height="6" rx="2" fill="#10B98133" /><rect x="1052.8977777777777" y="231.566" width="26.924" height="6" rx="2" fill="#10B98133" /><rect x="1052.8977777777777" y="253.566" width="26.924" height="6" rx="2" fill="#10B981aa" /><rect x="1052.8977777777777" y="275.56600000000003" width="26.924" height="6" rx="2" fill="#10B98133" /><rect x="1052.8977777777777" y="297.56600000000003" width="26.924" height="6" rx="2" fill="#10B981aa" /><rect x="1052.8977777777777" y="319.56600000000003" width="26.924" height="6" rx="2" fill="#10B98133" /><rect x="1052.8977777777777" y="341.56600000000003" width="26.924" height="6" rx="2" fill="#10B98133" /><rect x="1109.1733333333334" y="213.929" width="45.763999999999996" height="146.071" rx="3" fill="#0d0f14" opacity=".92"/><rect x="1115.1733333333334" y="223.929" width="33.763999999999996" height="6" rx="2" fill="#10B981aa" /><rect x="1115.1733333333334" y="245.929" width="33.763999999999996" height="6" rx="2" fill="#10B98133" /><rect x="1115.1733333333334" y="267.929" width="33.763999999999996" height="6" rx="2" fill="#10B981aa" /><rect x="1115.1733333333334" y="289.929" width="33.763999999999996" height="6" rx="2" fill="#10B981aa" /><rect x="1115.1733333333334" y="311.929" width="33.763999999999996" height="6" rx="2" fill="#10B981aa" /><rect x="1115.1733333333334" y="333.929" width="33.763999999999996" height="6" rx="2" fill="#10B98133" /><rect x="1171.4488888888889" y="244.716" width="50.756" height="115.28399999999999" rx="3" fill="#0d0f14" opacity=".92"/><rect x="1177.4488888888889" y="254.716" width="38.756" height="6" rx="2" fill="#10B981aa" /><rect x="1177.4488888888889" y="276.716" width="38.756" height="6" rx="2" fill="#10B98133" /><rect x="1177.4488888888889" y="298.716" width="38.756" height="6" rx="2" fill="#10B981aa" /><rect x="1177.4488888888889" y="320.716" width="38.756" height="6" rx="2" fill="#10B98133" /><rect x="1177.4488888888889" y="342.716" width="38.756" height="6" rx="2" fill="#10B981aa" /><rect x="1233.7244444444445" y="287.522" width="53.248000000000005" height="72.47800000000001" rx="3" fill="#0d0f14" opacity=".92"/><rect x="1239.7244444444445" y="297.522" width="41.248000000000005" height="6" rx="2" fill="#10B98133" /><rect x="1239.7244444444445" y="319.522" width="41.248000000000005" height="6" rx="2" fill="#10B981aa" /><rect x="1239.7244444444445" y="341.522" width="41.248000000000005" height="6" rx="2" fill="#10B98133" /><rect x="48" y="400" width="413.3333333333333" height="364" rx="16" fill="#161922" stroke="#ffffff12"/><rect x="64" y="416" width="381.3333333333333" height="165.48" rx="10" fill="#1f2330" /><text x="64" y="611.48" font-family="Inter, 'Segoe UI', Arial, sans-serif" font-size="16" font-weight="600" fill="#fff" text-anchor="start" opacity="1">Tower A — 2 &amp; 3 bed</text><rect x="64" y="625.48" width="247.99999999999997" height="8" rx="4" fill="#ffffff22" /><rect x="481.3333333333333" y="400" width="413.3333333333333" height="364" rx="16" fill="#161922" stroke="#ffffff12"/><rect x="497.3333333333333" y="416" width="381.3333333333333" height="165.48" rx="10" fill="#10B98155" /><text x="497.3333333333333" y="611.48" font-family="Inter, 'Segoe UI', Arial, sans-serif" font-size="16" font-weight="600" fill="#fff" text-anchor="start" opacity="1">Garden Villas</text><rect x="497.3333333333333" y="625.48" width="247.99999999999997" height="8" rx="4" fill="#ffffff22" /><rect x="914.6666666666666" y="400" width="413.3333333333333" height="364" rx="16" fill="#161922" stroke="#ffffff12"/><rect x="930.6666666666666" y="416" width="381.3333333333333" height="165.48" rx="10" fill="#1f2330" /><text x="930.6666666666666" y="611.48" font-family="Inter, 'Segoe UI', Arial, sans-serif" font-size="16" font-weight="600" fill="#fff" text-anchor="start" opacity="1">Sky Penthouses</text><rect x="930.6666666666666" y="625.48" width="247.99999999999997" height="8" rx="4" fill="#ffffff22" /></svg></g><g opacity=".9"><rect x="1370" y="936" width="200" height="36" rx="18" fill="#00000066" stroke="#ffffff22"/><text x="1470" y="960" font-family="Inter, 'Segoe UI', Arial, sans-serif" font-size="14" font-weight="600" fill="#ffffffcc" text-anchor="middle" opacity="1">Concept mockup</text></g></svg>